<svg width="225" height="37" viewBox="0 0 225 37" fill="none" xmlns="http://www.w3.org/2000/svg">
<path d="M10.432 35.808C9.984 35.936 9.472 36.048 8.896 36.144C8.352 36.272 7.68 36.336 6.88 36.336C6.112 36.336 5.408 36.288 4.768 36.192C4.16 36.096 3.616 35.888 3.136 35.568C2.688 35.248 2.304 34.96 1.984 34.704C1.696 34.416 1.44 33.92 1.216 33.216C1.024 32.512 0.864 31.92 0.736 31.44C0.64 30.96 0.56 30.176 0.496 29.088C0.464 27.968 0.432 27.056 0.4 26.352C0.4 25.648 0.4 24.528 0.4 22.992C0.4 21.456 0.4 20.352 0.4 19.68C0.432 18.976 0.464 18.08 0.496 16.992C0.56 15.872 0.64 15.088 0.736 14.64C0.864 14.16 1.024 13.584 1.216 12.912C1.44 12.208 1.696 11.728 1.984 11.472C2.304 11.216 2.704 10.944 3.184 10.656C3.92 10.144 4.912 9.888 6.16 9.888C7.44 9.888 8.352 9.952 8.896 10.08C9.472 10.176 9.984 10.288 10.432 10.416C10.88 10.544 11.264 10.816 11.584 11.232C11.904 11.616 12.176 11.952 12.4 12.24C12.624 12.496 12.8 12.976 12.928 13.68C13.056 14.352 13.152 14.912 13.216 15.36C13.312 15.776 13.376 16.496 13.408 17.52C13.472 18.544 13.504 19.376 13.504 20.016V22.992C13.504 22.992 13.504 23.056 13.504 23.184C13.504 23.184 13.504 24.16 13.504 26.112C13.504 28.288 13.44 29.728 13.312 30.432C13.184 31.104 13.056 31.792 12.928 32.496C12.8 33.2 12.624 33.696 12.4 33.984C12.176 34.24 11.904 34.576 11.584 34.992C11.264 35.376 10.88 35.648 10.432 35.808ZM10.672 24.096V22.464C10.672 18.272 10.496 15.632 10.144 14.544C9.632 13.168 8.576 12.464 6.976 12.432C5.664 12.432 4.784 12.768 4.336 13.44C4.08 13.888 3.872 14.304 3.712 14.688C3.552 15.072 3.44 15.744 3.376 16.704C3.28 18.112 3.232 19.472 3.232 20.784C3.232 22.096 3.232 23.424 3.232 24.768C3.232 26.08 3.248 27.216 3.28 28.176C3.312 29.136 3.44 30.16 3.664 31.248C3.92 32.304 4.304 32.992 4.816 33.312C5.328 33.632 5.968 33.792 6.736 33.792C7.504 33.792 8.096 33.728 8.512 33.6C8.928 33.44 9.264 33.168 9.52 32.784C9.808 32.368 10.016 31.968 10.144 31.584C10.304 31.168 10.416 30.528 10.48 29.664C10.608 28.416 10.672 26.56 10.672 24.096ZM21.682 5.184C21.266 5.6 20.754 5.808 20.146 5.808C19.538 5.808 19.01 5.6 18.562 5.184C18.146 4.736 17.938 4.208 17.938 3.6C17.938 2.96 18.146 2.448 18.562 2.064C19.01 1.648 19.538 1.44 20.146 1.44C20.754 1.44 21.266 1.648 21.682 2.064C22.13 2.48 22.354 2.992 22.354 3.6C22.354 4.208 22.13 4.736 21.682 5.184ZM18.754 33.984V10.224C20.162 10.224 20.978 10.32 21.202 10.512C21.458 10.672 21.586 11.312 21.586 12.432V36.192C20.178 36.192 19.346 36.096 19.09 35.904C18.866 35.712 18.754 35.072 18.754 33.984ZM41.944 24.816V25.872C41.944 29.072 41.656 31.328 41.08 32.64C39.928 35.072 37.48 36.304 33.736 36.336L26.776 35.376V32.688L33.784 33.168C35.96 33.168 37.352 32.688 37.96 31.728C38.184 31.344 38.36 31.04 38.488 30.816C38.616 30.56 38.696 30.144 38.728 29.568C38.792 28.992 38.824 28.576 38.824 28.32C38.856 28.032 38.856 27.536 38.824 26.832C38.824 26.128 38.824 25.648 38.824 25.392C38.824 23.824 37.416 21.824 34.6 19.392C33.448 18.4 32.28 17.376 31.096 16.32C29.912 15.264 28.904 14.08 28.072 12.768C27.272 11.456 26.872 10.24 26.872 9.12C26.872 7.968 26.872 7.2 26.872 6.816C26.904 6.4 26.952 5.84 27.016 5.136C27.112 4.4 27.256 3.888 27.448 3.6C27.64 3.28 27.912 2.896 28.264 2.448C28.648 2 29.128 1.696 29.704 1.536C31.272 1.088 32.92 0.863997 34.648 0.863997L39.736 1.824C39.736 3.04 39.416 3.696 38.776 3.792C38.52 3.824 38.136 3.824 37.624 3.792L34.936 3.504C32.632 3.504 31.208 4 30.664 4.992C30.344 5.504 30.136 6 30.04 6.48C29.976 6.96 29.944 7.648 29.944 8.544C29.944 9.408 30.232 10.304 30.808 11.232C31.416 12.128 32.168 12.96 33.064 13.728C33.96 14.464 34.92 15.28 35.944 16.176C36.968 17.072 37.928 17.936 38.824 18.768C39.72 19.568 40.456 20.512 41.032 21.6C41.64 22.656 41.944 23.728 41.944 24.816ZM50.518 36H50.134V5.184L50.326 3.984H44.95V1.44H58.534V3.984H53.11L53.302 5.184V33.792C53.302 34.88 53.174 35.52 52.918 35.712C52.694 35.904 51.894 36 50.518 36ZM66.3584 36H66.1184C64.7424 36 63.9264 35.904 63.6704 35.712C63.4464 35.52 63.3344 34.88 63.3344 33.792V1.44H63.5744C64.9504 1.44 65.7504 1.536 65.9744 1.728C66.2304 1.92 66.3584 2.56 66.3584 3.648V36ZM85.4571 21.264C85.4571 19.888 85.5531 19.088 85.7451 18.864C85.9371 18.608 86.5771 18.48 87.6651 18.48H88.4811V35.52C88.0011 35.584 87.2971 35.696 86.3691 35.856C84.5131 36.176 83.0571 36.336 82.0011 36.336C80.9451 36.336 80.0491 36.224 79.3131 36C78.5771 35.808 77.9371 35.568 77.3931 35.28C76.8811 34.96 76.4171 34.496 76.0011 33.888C75.5851 33.248 75.2331 32.672 74.9451 32.16C74.6891 31.648 74.4651 30.912 74.2731 29.952C74.0811 28.96 73.9371 28.144 73.8411 27.504C73.7451 26.864 73.6651 25.92 73.6011 24.672C73.5691 23.392 73.5531 22.4 73.5531 21.696V15.504C73.5531 13.072 73.6011 11.44 73.6971 10.608C73.8251 9.776 73.9531 8.912 74.0811 8.016C74.2091 7.088 74.3691 6.384 74.5611 5.904C74.7851 5.424 75.0411 4.864 75.3291 4.224C75.6171 3.584 75.9531 3.104 76.3371 2.784C76.7531 2.432 77.2171 2.08 77.7291 1.728C78.6891 1.152 80.0331 0.863997 81.7611 0.863997L87.5211 1.824C87.5211 2.752 87.3451 3.328 86.9931 3.552C86.6411 3.776 86.2731 3.888 85.8891 3.888C85.5371 3.888 85.2811 3.888 85.1211 3.888L81.7611 3.6C80.4171 3.6 79.4251 4 78.7851 4.8C78.4011 5.216 78.0811 5.632 77.8251 6.048C77.5691 6.464 77.3611 7.088 77.2011 7.92C77.0731 8.752 76.9611 9.472 76.8651 10.08C76.7691 10.656 76.6891 11.52 76.6251 12.672C76.5931 13.792 76.5771 14.688 76.5771 15.36V21.504C76.5771 23.936 76.6411 25.6 76.7691 26.496C76.9291 27.36 77.0731 28.224 77.2011 29.088C77.3611 29.92 77.5691 30.56 77.8251 31.008C78.0811 31.456 78.4011 31.904 78.7851 32.352C79.4571 33.184 80.4491 33.6 81.7611 33.6C82.7531 33.6 84.0491 33.44 85.6491 33.12L85.4571 31.92V21.264ZM115.759 36H115.567C114.191 36 113.391 35.904 113.167 35.712C112.943 35.52 112.815 34.88 112.783 33.792L112.975 8.256H112.447L112.255 9.12L107.407 19.344L106.255 21.552H104.335L103.135 19.392L98.191 9.12L98.047 8.256H97.567L97.711 33.792C97.711 34.88 97.599 35.52 97.375 35.712C97.151 35.904 96.351 36 94.975 36H94.783V1.44H95.023C96.399 1.44 97.231 1.536 97.519 1.728C97.839 1.92 98.271 2.56 98.815 3.648L104.911 16.8H105.631L112.783 1.44H113.023C114.399 1.44 115.199 1.536 115.423 1.728C115.647 1.92 115.759 2.56 115.759 3.648V36ZM123.006 36V1.44H134.67V3.984H125.982L126.174 5.184V14.736L125.982 15.936H133.998V18.672H125.982L126.174 19.872V31.968L125.982 33.168H143.838C146.014 33.168 147.406 32.688 148.014 31.728C148.238 31.344 148.414 31.04 148.542 30.816C148.67 30.56 148.75 30.144 148.782 29.568C148.846 28.992 148.878 28.576 148.878 28.32C148.91 28.032 148.91 27.536 148.878 26.832C148.878 26.128 148.878 25.648 148.878 25.392C148.878 23.824 147.47 21.824 144.654 19.392C143.502 18.4 142.334 17.376 141.15 16.32C139.966 15.264 138.958 14.08 138.126 12.768C137.326 11.456 136.926 10.24 136.926 9.12C136.926 7.968 136.926 7.2 136.926 6.816C136.958 6.4 137.006 5.84 137.07 5.136C137.166 4.4 137.31 3.888 137.502 3.6C137.694 3.28 137.966 2.896 138.318 2.448C138.702 2 139.182 1.696 139.758 1.536C141.294 1.088 142.942 0.863997 144.702 0.863997L149.79 1.824C149.79 3.04 149.47 3.696 148.83 3.792C148.574 3.824 148.19 3.824 147.678 3.792L144.99 3.504C142.686 3.504 141.262 4 140.718 4.992C140.398 5.504 140.19 6 140.094 6.48C140.03 6.96 139.998 7.648 139.998 8.544C139.998 9.408 140.286 10.304 140.862 11.232C141.47 12.128 142.222 12.96 143.118 13.728C144.014 14.464 144.974 15.28 145.998 16.176C147.022 17.072 147.982 17.936 148.878 18.768C149.774 19.568 150.51 20.512 151.086 21.6C151.694 22.656 151.998 23.728 151.998 24.816C151.998 28.112 151.854 30.32 151.566 31.44C150.702 34.704 148.11 36.336 143.79 36.336L136.158 36H123.006ZM162.48 35.376C162.064 35.792 161.552 36 160.944 36C160.336 36 159.808 35.792 159.36 35.376C158.944 34.928 158.736 34.4 158.736 33.792C158.736 33.184 158.944 32.672 159.36 32.256C159.808 31.84 160.336 31.632 160.944 31.632C161.552 31.632 162.064 31.84 162.48 32.256C162.928 32.672 163.152 33.184 163.152 33.792C163.152 34.4 162.928 34.928 162.48 35.376ZM167.556 23.136V20.064C167.556 17.728 167.604 16.256 167.7 15.648C167.828 15.04 167.956 14.384 168.084 13.68C168.244 12.976 168.42 12.496 168.612 12.24C168.836 11.952 169.092 11.616 169.38 11.232C169.7 10.848 170.084 10.592 170.532 10.464C171.62 10.08 172.724 9.888 173.844 9.888L177.828 10.512C177.828 11.92 177.252 12.624 176.1 12.624C175.876 12.624 175.652 12.608 175.428 12.576L173.844 12.432C172.212 12.432 171.22 13.12 170.868 14.496C170.516 15.84 170.34 18.176 170.34 21.504C170.34 24.832 170.356 26.992 170.388 27.984C170.42 28.976 170.548 30.032 170.772 31.152C170.996 32.24 171.348 32.96 171.828 33.312C172.308 33.632 172.98 33.792 173.844 33.792L178.02 33.312V35.52L173.844 36.336C172.116 36.336 170.964 36.128 170.388 35.712C169.812 35.296 169.38 34.96 169.092 34.704C168.804 34.416 168.548 33.92 168.324 33.216C168.132 32.512 167.988 31.92 167.892 31.44C167.796 30.96 167.716 30.176 167.652 29.088C167.588 27.232 167.556 25.248 167.556 23.136ZM192.635 35.808C192.187 35.936 191.675 36.048 191.099 36.144C190.555 36.272 189.883 36.336 189.083 36.336C188.315 36.336 187.611 36.288 186.971 36.192C186.363 36.096 185.819 35.888 185.339 35.568C184.891 35.248 184.507 34.96 184.187 34.704C183.899 34.416 183.643 33.92 183.419 33.216C183.227 32.512 183.067 31.92 182.939 31.44C182.843 30.96 182.763 30.176 182.699 29.088C182.667 27.968 182.635 27.056 182.603 26.352C182.603 25.648 182.603 24.528 182.603 22.992C182.603 21.456 182.603 20.352 182.603 19.68C182.635 18.976 182.667 18.08 182.699 16.992C182.763 15.872 182.843 15.088 182.939 14.64C183.067 14.16 183.227 13.584 183.419 12.912C183.643 12.208 183.899 11.728 184.187 11.472C184.507 11.216 184.907 10.944 185.387 10.656C186.123 10.144 187.115 9.888 188.363 9.888C189.643 9.888 190.555 9.952 191.099 10.08C191.675 10.176 192.187 10.288 192.635 10.416C193.083 10.544 193.467 10.816 193.787 11.232C194.107 11.616 194.379 11.952 194.603 12.24C194.827 12.496 195.003 12.976 195.131 13.68C195.259 14.352 195.355 14.912 195.419 15.36C195.515 15.776 195.579 16.496 195.611 17.52C195.675 18.544 195.707 19.376 195.707 20.016V22.992C195.707 22.992 195.707 23.056 195.707 23.184C195.707 23.184 195.707 24.16 195.707 26.112C195.707 28.288 195.643 29.728 195.515 30.432C195.387 31.104 195.259 31.792 195.131 32.496C195.003 33.2 194.827 33.696 194.603 33.984C194.379 34.24 194.107 34.576 193.787 34.992C193.467 35.376 193.083 35.648 192.635 35.808ZM192.875 24.096V22.464C192.875 18.272 192.699 15.632 192.347 14.544C191.835 13.168 190.779 12.464 189.179 12.432C187.867 12.432 186.987 12.768 186.539 13.44C186.283 13.888 186.075 14.304 185.915 14.688C185.755 15.072 185.643 15.744 185.579 16.704C185.483 18.112 185.435 19.472 185.435 20.784C185.435 22.096 185.435 23.424 185.435 24.768C185.435 26.08 185.451 27.216 185.483 28.176C185.515 29.136 185.643 30.16 185.867 31.248C186.123 32.304 186.507 32.992 187.019 33.312C187.531 33.632 188.171 33.792 188.939 33.792C189.707 33.792 190.299 33.728 190.715 33.6C191.131 33.44 191.467 33.168 191.723 32.784C192.011 32.368 192.219 31.968 192.347 31.584C192.507 31.168 192.619 30.528 192.683 29.664C192.811 28.416 192.875 26.56 192.875 24.096ZM221.58 33.792V23.184C221.58 23.184 221.58 23.056 221.58 22.8C221.58 18.064 221.436 15.152 221.148 14.064C220.86 12.976 219.948 12.432 218.412 12.432L213.948 13.92L214.14 15.12V36C212.764 36 211.948 35.904 211.692 35.712C211.468 35.52 211.356 34.88 211.356 33.792L211.308 23.184C211.308 23.056 211.308 22.624 211.308 21.888C211.308 21.12 211.308 20.464 211.308 19.92C211.308 19.376 211.292 18.864 211.26 18.384C211.26 17.872 211.228 17.2 211.164 16.368C211.132 15.536 211.052 14.944 210.924 14.592C210.796 14.24 210.62 13.856 210.396 13.44C210.012 12.768 209.276 12.432 208.188 12.432L203.676 14.112L203.868 15.312V36C202.46 36 201.628 35.904 201.372 35.712C201.148 35.52 201.036 34.88 201.036 33.792V10.224C202.444 10.224 203.26 10.288 203.484 10.416C203.74 10.512 203.868 10.928 203.868 11.664L208.188 9.888C210.492 9.888 212.188 10.56 213.276 11.904L218.412 9.888C221.324 9.888 223.052 10.576 223.596 11.952C224.172 13.296 224.46 17.056 224.46 23.232V36C223.02 36 222.172 35.904 221.916 35.712C221.692 35.52 221.58 34.88 221.58 33.792Z" fill="black"/>
</svg>
